<?xml version="1.0" encoding="UTF-8" standalone="no"?>
<!-- Created with Inkscape (http://www.inkscape.org/) -->

<svg
   width="210mm"
   height="297mm"
   viewBox="0 0 210 297"
   version="1.1"
   id="svg1"
   inkscape:version="1.3 (0e150ed, 2023-07-21)"
   sodipodi:docname="affiche 2025 term2.svg"
   xmlns:inkscape="http://www.inkscape.org/namespaces/inkscape"
   xmlns:sodipodi="http://sodipodi.sourceforge.net/DTD/sodipodi-0.dtd"
   xmlns="http://www.w3.org/2000/svg"
   xmlns:svg="http://www.w3.org/2000/svg">
  <sodipodi:namedview
     id="namedview1"
     pagecolor="#ffffff"
     bordercolor="#666666"
     borderopacity="1.0"
     inkscape:showpageshadow="2"
     inkscape:pageopacity="0.0"
     inkscape:pagecheckerboard="0"
     inkscape:deskcolor="#d1d1d1"
     inkscape:document-units="mm"
     inkscape:zoom="0.6841369"
     inkscape:cx="396.11955"
     inkscape:cy="561.29117"
     inkscape:window-width="1792"
     inkscape:window-height="951"
     inkscape:window-x="1921"
     inkscape:window-y="25"
     inkscape:window-maximized="0"
     inkscape:current-layer="layer1" />
  <defs
     id="defs1">
    <rect
       x="577.36982"
       y="648.99291"
       width="32.157306"
       height="80.393266"
       id="rect106" />
  </defs>
  <g
     inkscape:label="Layer 1"
     inkscape:groupmode="layer"
     id="layer1">
    <g
       id="text2"
       style="font-size:14.1111px;line-height:1.05;fill:none;stroke:#000000;stroke-width:0.413802"
       aria-label="17/02&#10;Cricut and -fold&#10;&#10;03/03&#10;Plotter&#10;&#10;17/03&#10;Embroidery&#10;&#10;22/04&#10;Unintended application"
       transform="translate(0,-4.2333335)">
      <path
         style="font-weight:bold;font-family:Helvetica;-inkscape-font-specification:'Helvetica Bold';fill:none;stroke:#000000"
         d="m 32.563481,105.95621 h -2.011934 v -6.890188 h -2.349554 v -1.336696 q 0.930175,-0.04134 1.302245,-0.124024 0.592556,-0.130913 0.964626,-0.523654 0.254937,-0.268717 0.385851,-0.716579 0.07579,-0.268717 0.07579,-0.399631 h 1.632974 z m 8.722975,-6.779945 q -0.785481,1.116205 -1.316026,2.301325 -0.420301,0.93017 -0.75792,2.27376 -0.337619,1.34358 -0.337619,2.20486 h -2.039495 q 0.08957,-2.68718 1.763887,-5.58794 1.08176,-1.798342 1.812119,-2.508031 h -4.981604 l 0.02756,-1.763887 h 7.05555 v 1.536511 q -0.440972,0.434082 -1.226452,1.543402 z m 0.861273,6.779945 3.934296,-10.466195 h 1.632974 l -3.948076,10.466195 z m 8.578281,0.24804 q -1.908582,0 -2.680283,-1.33669 -0.76481,-1.3367 -0.76481,-3.81027 0,-2.473581 0.76481,-3.817168 0.771701,-1.343586 2.680283,-1.343586 1.908581,0 2.680282,1.343586 0.76481,1.343587 0.76481,3.817168 0,2.47357 -0.7717,3.81027 -0.764811,1.33669 -2.673392,1.33669 z m 1.150661,-2.51491 q 0.268717,-0.90951 0.268717,-2.63205 0,-1.805233 -0.275608,-2.673397 -0.268717,-0.868163 -1.14377,-0.868163 -0.875054,0 -1.157552,0.868163 -0.282497,0.868164 -0.282497,2.673397 0,1.72254 0.282497,2.63894 0.282498,0.9095 1.157552,0.9095 0.875053,0 1.150661,-0.91639 z m 7.717007,-5.691297 q -0.351399,-0.420301 -1.005967,-0.420301 -0.895724,0 -1.219563,0.668348 -0.186035,0.38585 -0.220486,1.226453 h -1.908581 q 0.04823,-1.274685 0.461643,-2.060166 0.785481,-1.49517 2.790525,-1.49517 1.584742,0 2.521808,0.881944 0.937065,0.875053 0.937065,2.321992 0,1.109317 -0.661458,1.970597 -0.434082,0.57188 -1.426268,1.27468 l -0.785482,0.55811 q -0.737249,0.52365 -1.012857,0.75792 -0.268717,0.23426 -0.454752,0.54432 h 4.361487 v 1.72944 h -6.841954 q 0.02756,-1.07487 0.461643,-1.96371 0.420301,-0.99907 1.984373,-2.11528 1.357367,-0.97152 1.756997,-1.39182 0.613227,-0.654568 0.613227,-1.433159 0,-0.633897 -0.3514,-1.054198 z"
         id="path89" />
      <path
         style="font-weight:bold;font-family:Helvetica;-inkscape-font-specification:'Helvetica Bold';fill:none;stroke:#000000"
         d="m 35.464249,120.44417 q -1.136881,1.04041 -2.907658,1.04041 -2.191079,0 -3.445093,-1.40559 -1.254014,-1.41249 -1.254014,-3.87229 0,-2.65961 1.426269,-4.09966 1.240233,-1.25401 3.155705,-1.25401 2.563149,0 3.748261,1.6812 0.654567,0.94396 0.702798,1.8948 H 34.76834 q -0.206705,-0.73036 -0.530544,-1.10243 -0.578776,-0.66145 -1.715656,-0.66145 -1.157551,0 -1.825899,0.93706 -0.668348,0.93018 -0.668348,2.63894 0,1.70877 0.702799,2.56315 0.709689,0.84749 1.798338,0.84749 1.11621,0 1.701876,-0.73036 0.323839,-0.39274 0.537434,-1.17822 h 2.101507 q -0.275607,1.66054 -1.405598,2.70096 z m 6.642139,-4.94027 q -1.185112,0 -1.591633,0.7717 -0.227376,0.43409 -0.227376,1.3367 v 3.58979 h -1.977484 v -7.51031 h 1.874131 v 1.30914 q 0.454752,-0.75103 0.792371,-1.02664 0.551215,-0.46164 1.433159,-0.46164 0.05512,0 0.08957,0.007 0.04134,0 0.172255,0.007 v 2.01193 q -0.186035,-0.0207 -0.330729,-0.0276 -0.144694,-0.007 -0.234266,-0.007 z m 3.73448,-1.81212 v 7.51031 h -1.991263 v -7.51031 z m 0,-2.70784 v 1.81212 h -1.991263 v -1.81212 z m 8.399136,5.40191 H 52.22807 q -0.05512,-0.4203 -0.282498,-0.75792 -0.330729,-0.45476 -1.026637,-0.45476 -0.992187,0 -1.357367,0.9853 -0.192925,0.52365 -0.192925,1.39182 0,0.82682 0.192925,1.3298 0.351399,0.93707 1.322916,0.93707 0.689018,0 0.978406,-0.37207 0.289388,-0.37207 0.351399,-0.96463 h 2.005044 q -0.0689,0.89573 -0.647677,1.69499 -0.923285,1.28846 -2.735404,1.28846 -1.812119,0 -2.666502,-1.07487 -0.854383,-1.07486 -0.854383,-2.79052 0,-1.93614 0.943956,-3.01101 0.943955,-1.07487 2.60449,-1.07487 1.412488,0 2.308212,0.6339 0.902615,0.63389 1.067979,2.23931 z m 6.166716,3.75515 q -0.02756,0.0344 -0.137804,0.2067 -0.110243,0.17226 -0.261827,0.30317 -0.461642,0.41341 -0.895724,0.565 -0.427191,0.15158 -1.005967,0.15158 -1.667425,0 -2.2462,-1.19889 -0.323839,-0.66146 -0.323839,-1.94992 v -4.52686 h 2.011934 v 4.52686 q 0,0.64078 0.151584,0.96462 0.268717,0.57189 1.054199,0.57189 1.005967,0 1.378037,-0.81304 0.192925,-0.44098 0.192925,-1.16445 v -4.08588 h 1.991263 v 7.51031 H 60.40672 Z m 7.241586,-0.33762 v 1.46761 l -0.930175,0.0345 q -1.391817,0.0482 -1.901691,-0.48231 -0.330729,-0.33762 -0.330729,-1.04042 v -4.62332 h -1.047308 v -1.3987 h 1.047308 v -2.09462 h 1.943032 v 2.09462 h 1.219563 v 1.3987 h -1.219563 v 3.96875 q 0,0.46164 0.117133,0.57878 0.117134,0.11024 0.71658,0.11024 0.08957,0 0.186035,0 0.103353,-0.007 0.199815,-0.0138 z m 5.463916,-5.29855 q 0.778591,-0.99219 2.673392,-0.99219 1.233344,0 2.191079,0.4892 0.957736,0.48921 0.957736,1.84657 v 3.44509 q 0,0.35829 0.01378,0.86817 0.02067,0.38585 0.117133,0.52365 0.09646,0.13781 0.289388,0.22738 v 0.28939 h -2.135958 q -0.08957,-0.22738 -0.124023,-0.4272 -0.03445,-0.19981 -0.05512,-0.45475 -0.406521,0.44097 -0.937065,0.75103 -0.633897,0.36518 -1.433159,0.36518 -1.019747,0 -1.688095,-0.57877 -0.661458,-0.58567 -0.661458,-1.65365 0,-1.38493 1.067979,-2.00504 0.585666,-0.33762 1.722546,-0.48231 l 0.668348,-0.0827 q 0.544325,-0.0689 0.778591,-0.17225 0.420302,-0.17915 0.420302,-0.55811 0,-0.46164 -0.323839,-0.63389 -0.316949,-0.17915 -0.937065,-0.17915 -0.695909,0 -0.985297,0.34451 -0.206706,0.25494 -0.275607,0.68902 h -1.894801 q 0.06201,-0.9853 0.551214,-1.61919 z m 1.46072,5.27788 q 0.275607,0.22737 0.675238,0.22737 0.633897,0 1.164441,-0.37207 0.537435,-0.37207 0.558105,-1.35736 v -0.73036 q -0.186035,0.11713 -0.37896,0.19292 -0.186035,0.0689 -0.516764,0.13092 l -0.440972,0.0827 q -0.620116,0.11024 -0.888834,0.26872 -0.454752,0.26871 -0.454752,0.83371 0,0.50298 0.282498,0.72347 z m 9.639371,-4.6371 q -0.999077,0 -1.371147,0.8475 -0.192925,0.44786 -0.192925,1.14377 v 4.06521 h -1.956813 v -7.49653 h 1.894801 v 1.09554 q 0.378961,-0.57877 0.71658,-0.83371 0.606336,-0.45475 1.536511,-0.45475 1.164442,0 1.901691,0.61323 0.74414,0.60633 0.74414,2.01882 v 5.0574 h -2.011934 v -4.5682 q 0,-0.59255 -0.158474,-0.9095 -0.289388,-0.57878 -1.10243,-0.57878 z m 11.92002,-4.08588 v 10.14236 h -1.908581 v -1.04042 q -0.420301,0.66835 -0.957736,0.97151 -0.537434,0.30317 -1.336696,0.30317 -1.316025,0 -2.21864,-1.06109 -0.895724,-1.06797 -0.895724,-2.7354 0,-1.92236 0.881944,-3.02479 0.888834,-1.10243 2.370224,-1.10243 0.682128,0 1.212673,0.30317 0.530544,0.29628 0.861273,0.82682 v -3.5829 z m -5.291662,6.43544 q 0,1.04041 0.413411,1.66053 0.406521,0.62701 1.240233,0.62701 0.833713,0 1.267795,-0.62012 0.434081,-0.62012 0.434081,-1.60541 0,-1.37804 -0.695908,-1.9706 -0.427192,-0.35828 -0.992187,-0.35828 -0.861273,0 -1.267794,0.65456 -0.399631,0.64768 -0.399631,1.61231 z m 10.404179,-1.15755 h 3.95497 v 1.86035 h -3.95497 z m 8.81255,-5.35368 v 1.59852 q -0.16537,-0.0207 -0.55811,-0.0276 -0.38585,-0.0138 -0.53743,0.17226 -0.1447,0.17914 -0.1447,0.39963 v 0.6339 h 1.28847 v 1.38492 h -1.28847 v 6.05648 h -1.95681 v -6.05648 h -1.09554 v -1.38492 h 1.07487 v -0.48232 q 0,-1.20578 0.40652,-1.66053 0.42719,-0.67524 2.06017,-0.67524 0.18603,0 0.33762,0.0138 0.15158,0.007 0.41341,0.0276 z m 7.4414,3.65869 q 0.95085,1.192 0.95085,2.81809 0,1.65364 -0.95085,2.83186 -0.95084,1.17133 -2.88699,1.17133 -1.93614,0 -2.88698,-1.17133 -0.95085,-1.17822 -0.95085,-2.83186 0,-1.62609 0.95085,-2.81809 0.95084,-1.192 2.88698,-1.192 1.93615,0 2.88699,1.192 z m -2.89388,0.46853 q -0.86127,0 -1.3298,0.61323 -0.46164,0.60633 -0.46164,1.73633 0,1.12999 0.46164,1.74321 0.46853,0.61323 1.3298,0.61323 0.86128,0 1.32292,-0.61323 0.46164,-0.61322 0.46164,-1.74321 0,-1.13 -0.46164,-1.73633 -0.46164,-0.61323 -1.32292,-0.61323 z m 5.29167,-4.06521 h 1.9637 v 10.15614 h -1.9637 z m 10.71423,0.0138 v 10.14236 h -1.90858 v -1.04042 q -0.4203,0.66835 -0.95774,0.97151 -0.53743,0.30317 -1.33669,0.30317 -1.31603,0 -2.21864,-1.06109 -0.89573,-1.06797 -0.89573,-2.7354 0,-1.92236 0.88195,-3.02479 0.88883,-1.10243 2.37022,-1.10243 0.68213,0 1.21267,0.30317 0.53055,0.29628 0.86127,0.82682 v -3.5829 z m -5.29166,6.43544 q 0,1.04041 0.41341,1.66053 0.40652,0.62701 1.24023,0.62701 0.83371,0 1.26779,-0.62012 0.43409,-0.62012 0.43409,-1.60541 0,-1.37804 -0.69591,-1.9706 -0.42719,-0.35828 -0.99219,-0.35828 -0.86127,0 -1.26779,0.65456 -0.39963,0.64768 -0.39963,1.61231 z"
         id="path90" />
      <path
         style="font-weight:bold;font-family:Helvetica;-inkscape-font-specification:'Helvetica Bold';fill:none;stroke:#000000"
         d="m 31.109652,151.94189 q -1.908582,0 -2.680282,-1.3367 -0.764811,-1.33669 -0.764811,-3.81027 0,-2.47357 0.764811,-3.81716 0.7717,-1.34359 2.680282,-1.34359 1.908581,0 2.680282,1.34359 0.764811,1.34359 0.764811,3.81716 0,2.47358 -0.771701,3.81027 -0.764811,1.3367 -2.673392,1.3367 z m 1.150661,-2.51492 q 0.268717,-0.9095 0.268717,-2.63205 0,-1.80523 -0.275607,-2.67339 -0.268718,-0.86816 -1.143771,-0.86816 -0.875054,0 -1.157551,0.86816 -0.282498,0.86816 -0.282498,2.67339 0,1.72255 0.282498,2.63894 0.282497,0.90951 1.157551,0.90951 0.875053,0 1.150661,-0.9164 z m 5.512148,-5.73263 q -0.330729,0.44097 -0.316948,1.17822 h -1.83279 q 0.02756,-0.74414 0.254937,-1.41249 0.241157,-0.58566 0.757921,-1.08176 0.38585,-0.3514 0.916394,-0.53743 0.530545,-0.18604 1.302245,-0.18604 1.433159,0 2.308213,0.74414 0.881943,0.73725 0.881943,1.98438 0,0.88194 -0.523654,1.48828 -0.330729,0.37896 -0.689018,0.51676 0.268717,0 0.7717,0.46164 0.751031,0.69591 0.751031,1.90169 0,1.2678 -0.881944,2.23242 -0.875054,0.95774 -2.5976,0.95774 -2.122177,0 -2.949,-1.38493 -0.434081,-0.73725 -0.482313,-1.92925 h 1.929252 q 0,0.59945 0.192926,0.99219 0.358289,0.72347 1.302245,0.72347 0.578775,0 1.005967,-0.39274 0.434081,-0.39963 0.434081,-1.14377 0,-0.9853 -0.799261,-1.31603 -0.454752,-0.18603 -1.433159,-0.18603 v -1.4056 q 0.957736,-0.0138 1.336696,-0.18604 0.654568,-0.28939 0.654568,-1.17133 0,-0.57188 -0.337619,-0.93017 -0.330729,-0.35829 -0.937065,-0.35829 -0.695909,0 -1.019748,0.44097 z m 4.375268,7.9995 3.934296,-10.46619 h 1.632974 l -3.948076,10.46619 z m 8.578281,0.24805 q -1.908582,0 -2.680283,-1.3367 -0.76481,-1.33669 -0.76481,-3.81027 0,-2.47357 0.76481,-3.81716 0.771701,-1.34359 2.680283,-1.34359 1.908581,0 2.680282,1.34359 0.76481,1.34359 0.76481,3.81716 0,2.47358 -0.7717,3.81027 -0.764811,1.3367 -2.673392,1.3367 z m 1.150661,-2.51492 q 0.268717,-0.9095 0.268717,-2.63205 0,-1.80523 -0.275608,-2.67339 -0.268717,-0.86816 -1.14377,-0.86816 -0.875054,0 -1.157552,0.86816 -0.282497,0.86816 -0.282497,2.67339 0,1.72255 0.282497,2.63894 0.282498,0.90951 1.157552,0.90951 0.875053,0 1.150661,-0.9164 z m 5.512148,-5.73263 q -0.330729,0.44097 -0.316949,1.17822 h -1.832789 q 0.02756,-0.74414 0.254937,-1.41249 0.241156,-0.58566 0.75792,-1.08176 0.385851,-0.3514 0.916395,-0.53743 0.530544,-0.18604 1.302245,-0.18604 1.433159,0 2.308212,0.74414 0.881944,0.73725 0.881944,1.98438 0,0.88194 -0.523654,1.48828 -0.330729,0.37896 -0.689019,0.51676 0.268718,0 0.771701,0.46164 0.75103,0.69591 0.75103,1.90169 0,1.2678 -0.881943,2.23242 -0.875054,0.95774 -2.5976,0.95774 -2.122177,0 -2.949,-1.38493 -0.434081,-0.73725 -0.482313,-1.92925 h 1.929252 q 0,0.59945 0.192925,0.99219 0.35829,0.72347 1.302246,0.72347 0.578775,0 1.005967,-0.39274 0.434081,-0.39963 0.434081,-1.14377 0,-0.9853 -0.799261,-1.31603 -0.454752,-0.18603 -1.433159,-0.18603 v -1.4056 q 0.957736,-0.0138 1.336696,-0.18604 0.654568,-0.28939 0.654568,-1.17133 0,-0.57188 -0.337619,-0.93017 -0.330729,-0.35829 -0.937066,-0.35829 -0.695908,0 -1.019747,0.44097 z"
         id="path91" />
      <path
         style="font-weight:bold;font-family:Helvetica;-inkscape-font-specification:'Helvetica Bold';fill:none;stroke:#000000"
         d="m 32.611712,163.28792 h -2.156628 v 3.6518 h -2.108397 v -10.15613 h 4.423499 q 1.529622,0 2.439126,0.78548 0.909505,0.78548 0.909505,2.43224 0,1.79833 -0.909505,2.54247 -0.909504,0.74414 -2.5976,0.74414 z m 0.992187,-2.11528 q 0.413411,-0.36518 0.413411,-1.15755 0,-0.79238 -0.420301,-1.12999 -0.413411,-0.33762 -1.164442,-0.33762 h -1.977483 v 2.99034 h 1.977483 q 0.751031,0 1.171332,-0.36518 z m 3.989418,-4.38905 h 1.963703 v 10.15613 h -1.963703 z m 10.142353,3.59668 q 0.950846,1.192 0.950846,2.81808 0,1.65365 -0.950846,2.83187 -0.950845,1.17133 -2.886987,1.17133 -1.936142,0 -2.886988,-1.17133 -0.950846,-1.17822 -0.950846,-2.83187 0,-1.62608 0.950846,-2.81808 0.950846,-1.19201 2.886988,-1.19201 1.936142,0 2.886987,1.19201 z m -2.893877,0.46853 q -0.861274,0 -1.329806,0.61323 -0.461643,0.60633 -0.461643,1.73632 0,1.12999 0.461643,1.74322 0.468532,0.61323 1.329806,0.61323 0.861273,0 1.322915,-0.61323 0.461643,-0.61323 0.461643,-1.74322 0,-1.12999 -0.461643,-1.73632 -0.461642,-0.61323 -1.322915,-0.61323 z m 8.688523,4.69222 v 1.4676 l -0.930175,0.0345 q -1.391818,0.0482 -1.901692,-0.48232 -0.330729,-0.33762 -0.330729,-1.04042 v -4.62331 h -1.047308 v -1.39871 h 1.047308 v -2.09461 h 1.943033 v 2.09461 h 1.219563 v 1.39871 h -1.219563 v 3.96875 q 0,0.46164 0.117133,0.57877 0.117133,0.11025 0.716579,0.11025 0.08957,0 0.186035,0 0.103353,-0.007 0.199816,-0.0138 z m 4.699106,0 v 1.4676 l -0.930175,0.0345 q -1.391818,0.0482 -1.901691,-0.48232 -0.330729,-0.33762 -0.330729,-1.04042 v -4.62331 h -1.047309 v -1.39871 h 1.047309 v -2.09461 h 1.943032 v 2.09461 h 1.219563 v 1.39871 h -1.219563 v 3.96875 q 0,0.46164 0.117133,0.57877 0.117133,0.11025 0.716579,0.11025 0.08957,0 0.186035,0 0.103353,-0.007 0.199816,-0.0138 z m 7.689449,-0.80616 q -0.07579,0.66835 -0.695909,1.35737 -0.964626,1.09554 -2.700953,1.09554 -1.433159,0 -2.528698,-0.92329 -1.09554,-0.92328 -1.09554,-3.00412 0,-1.94992 0.985297,-2.99034 0.992187,-1.04042 2.570039,-1.04042 0.937065,0 1.688096,0.3514 0.75103,0.3514 1.240233,1.10932 0.440972,0.66835 0.571885,1.5503 0.07579,0.51676 0.06201,1.48828 h -5.140078 q 0.04134,1.12999 0.709689,1.58474 0.406521,0.2825 0.978406,0.2825 0.606336,0 0.985297,-0.34451 0.206705,-0.18604 0.36518,-0.51677 z m -1.943033,-2.30132 q -0.04823,-0.77859 -0.475423,-1.17822 -0.420301,-0.40652 -1.047308,-0.40652 -0.682128,0 -1.061088,0.42719 -0.37207,0.42719 -0.468533,1.15755 z m 7.138231,-1.192 q -1.185112,0 -1.591633,0.7717 -0.227376,0.43408 -0.227376,1.3367 v 3.58978 h -1.977484 v -7.5103 h 1.874131 v 1.30914 q 0.454752,-0.75103 0.792371,-1.02664 0.551215,-0.46164 1.433159,-0.46164 0.05512,0 0.08957,0.007 0.04134,0 0.172255,0.007 v 2.01193 q -0.186035,-0.0207 -0.330729,-0.0276 -0.144694,-0.007 -0.234266,-0.007 z"
         id="path92" />
      <path
         style="font-weight:bold;font-family:Helvetica;-inkscape-font-specification:'Helvetica Bold';fill:none;stroke:#000000"
         d="m 32.563481,197.43148 h -2.011934 v -6.89019 h -2.349554 v -1.33669 q 0.930175,-0.0413 1.302245,-0.12402 0.592556,-0.13092 0.964626,-0.52366 0.254937,-0.26872 0.385851,-0.71658 0.07579,-0.26872 0.07579,-0.39963 h 1.632974 z m 8.722975,-6.77994 q -0.785481,1.11621 -1.316026,2.30132 -0.420301,0.93017 -0.75792,2.27376 -0.337619,1.34359 -0.337619,2.20486 h -2.039495 q 0.08957,-2.68717 1.763887,-5.58794 1.08176,-1.79834 1.812119,-2.50803 h -4.981604 l 0.02756,-1.76389 h 7.05555 v 1.53652 q -0.440972,0.43408 -1.226452,1.5434 z m 0.861273,6.77994 3.934296,-10.46619 h 1.632974 l -3.948076,10.46619 z m 8.578281,0.24805 q -1.908582,0 -2.680283,-1.3367 -0.76481,-1.33669 -0.76481,-3.81027 0,-2.47358 0.76481,-3.81716 0.771701,-1.34359 2.680283,-1.34359 1.908581,0 2.680282,1.34359 0.76481,1.34358 0.76481,3.81716 0,2.47358 -0.7717,3.81027 -0.764811,1.3367 -2.673392,1.3367 z m 1.150661,-2.51492 q 0.268717,-0.90951 0.268717,-2.63205 0,-1.80523 -0.275608,-2.67339 -0.268717,-0.86817 -1.14377,-0.86817 -0.875054,0 -1.157552,0.86817 -0.282497,0.86816 -0.282497,2.67339 0,1.72254 0.282497,2.63894 0.282498,0.9095 1.157552,0.9095 0.875053,0 1.150661,-0.91639 z m 5.512148,-5.73264 q -0.330729,0.44098 -0.316949,1.17823 h -1.832789 q 0.02756,-0.74414 0.254937,-1.41249 0.241156,-0.58567 0.75792,-1.08176 0.385851,-0.3514 0.916395,-0.53744 0.530544,-0.18603 1.302245,-0.18603 1.433159,0 2.308212,0.74414 0.881944,0.73725 0.881944,1.98437 0,0.88195 -0.523654,1.48828 -0.330729,0.37896 -0.689019,0.51677 0.268718,0 0.771701,0.46164 0.75103,0.69591 0.75103,1.90169 0,1.2678 -0.881943,2.23242 -0.875054,0.95774 -2.5976,0.95774 -2.122177,0 -2.949,-1.38493 -0.434081,-0.73725 -0.482313,-1.92925 h 1.929252 q 0,0.59944 0.192925,0.99218 0.35829,0.72347 1.302246,0.72347 0.578775,0 1.005967,-0.39274 0.434081,-0.39963 0.434081,-1.14377 0,-0.98529 -0.799261,-1.31602 -0.454752,-0.18604 -1.433159,-0.18604 v -1.4056 q 0.957736,-0.0138 1.336696,-0.18603 0.654568,-0.28939 0.654568,-1.17133 0,-0.57189 -0.337619,-0.93018 -0.330729,-0.35829 -0.937066,-0.35829 -0.695908,0 -1.019747,0.44097 z"
         id="path93" />
      <path
         style="font-weight:bold;font-family:Helvetica;-inkscape-font-specification:'Helvetica Bold';fill:none;stroke:#000000"
         d="m 35.367786,208.24008 h -4.933372 v 2.61138 h 5.622391 v 1.8259 h -7.696337 v -10.15613 h 7.44829 v 1.79833 h -5.374344 v 2.15663 h 4.933372 z m 6.400983,-1.00597 q -0.248046,-0.54432 -0.971516,-0.54432 -0.840603,0 -1.12999,0.54432 -0.158475,0.31006 -0.158475,0.92329 v 4.51996 h -1.991263 v -7.49652 h 1.908581 v 1.09554 q 0.36518,-0.58567 0.689019,-0.83372 0.571885,-0.44097 1.48139,-0.44097 0.861273,0 1.391817,0.37896 0.427192,0.3514 0.647678,0.90262 0.38585,-0.66146 0.957735,-0.97152 0.606337,-0.31006 1.350477,-0.31006 0.496093,0 0.978406,0.19293 0.482313,0.19292 0.875054,0.67524 0.316948,0.39274 0.427191,0.96462 0.0689,0.37896 0.0689,1.10932 l -0.01378,4.73356 h -2.011934 v -4.78179 q 0,-0.42719 -0.137804,-0.7028 -0.261827,-0.52365 -0.964626,-0.52365 -0.813042,0 -1.1231,0.67524 -0.158475,0.35829 -0.158475,0.86127 v 4.47173 h -1.977483 v -4.47173 q 0,-0.66835 -0.137804,-0.97152 z m 12.409225,5.64306 q -0.930175,0 -1.49517,-0.37207 -0.337619,-0.22048 -0.73036,-0.7717 v 0.94396 h -1.922362 v -10.14235 h 1.956813 v 3.61045 q 0.37207,-0.52365 0.819932,-0.79926 0.530545,-0.34451 1.350477,-0.34451 1.48139,0 2.315102,1.06798 0.840603,1.06798 0.840603,2.75608 0,1.7501 -0.826823,2.90076 -0.826822,1.15066 -2.308212,1.15066 z m 1.074869,-3.84472 q 0,-0.79926 -0.206705,-1.32291 -0.392741,-0.99219 -1.446939,-0.99219 -1.067979,0 -1.46761,0.97151 -0.206706,0.51677 -0.206706,1.3367 0,0.96463 0.427192,1.59852 0.427191,0.6339 1.302245,0.6339 0.75792,0 1.178222,-0.61323 0.420301,-0.61322 0.420301,-1.6123 z m 7.241584,-2.05327 q -1.185112,0 -1.591633,0.7717 -0.227376,0.43408 -0.227376,1.33669 v 3.58979 h -1.977483 v -7.5103 h 1.87413 v 1.30913 q 0.454753,-0.75103 0.792372,-1.02664 0.551215,-0.46164 1.433158,-0.46164 0.05512,0 0.08957,0.007 0.04134,0 0.172254,0.007 v 2.01194 q -0.186035,-0.0207 -0.330728,-0.0276 -0.144694,-0.007 -0.234267,-0.007 z m 7.978835,-0.86128 q 0.950846,1.192 0.950846,2.81809 0,1.65364 -0.950846,2.83186 -0.950845,1.17134 -2.886988,1.17134 -1.936142,0 -2.886987,-1.17134 -0.950846,-1.17822 -0.950846,-2.83186 0,-1.62609 0.950846,-2.81809 0.950845,-1.192 2.886987,-1.192 1.936143,0 2.886988,1.192 z m -2.893878,0.46854 q -0.861273,0 -1.329806,0.61322 -0.461642,0.60634 -0.461642,1.73633 0,1.12999 0.461642,1.74322 0.468533,0.61322 1.329806,0.61322 0.861273,0 1.322916,-0.61322 0.461642,-0.61323 0.461642,-1.74322 0,-1.12999 -0.461642,-1.73633 -0.461643,-0.61322 -1.322916,-0.61322 z m 7.269145,-1.41938 v 7.5103 h -1.991263 v -7.5103 z m 0,-2.70785 v 1.81212 h -1.991263 v -1.81212 z m 8.736757,0.0758 v 10.14235 h -1.908582 v -1.04042 q -0.420301,0.66835 -0.957735,0.97152 -0.537435,0.30317 -1.336696,0.30317 -1.316026,0 -2.21864,-1.06109 -0.895724,-1.06798 -0.895724,-2.73541 0,-1.92236 0.881944,-3.02479 0.888833,-1.10243 2.370223,-1.10243 0.682129,0 1.212673,0.30317 0.530544,0.29628 0.861273,0.82682 v -3.58289 z m -5.291663,6.43543 q 0,1.04042 0.413411,1.66053 0.406521,0.62701 1.240234,0.62701 0.833712,0 1.267794,-0.62012 0.434082,-0.62011 0.434082,-1.60541 0,-1.37804 -0.695909,-1.97059 -0.427192,-0.35829 -0.992187,-0.35829 -0.861273,0 -1.267794,0.65457 -0.399631,0.64767 -0.399631,1.6123 z m 13.504763,1.50206 q -0.07579,0.66835 -0.695909,1.35737 -0.964626,1.09554 -2.700952,1.09554 -1.433159,0 -2.528698,-0.92329 -1.09554,-0.92328 -1.09554,-3.00412 0,-1.94992 0.985297,-2.99034 0.992186,-1.04042 2.570039,-1.04042 0.937065,0 1.688095,0.3514 0.751031,0.3514 1.240234,1.10932 0.440972,0.66835 0.571885,1.55029 0.07579,0.51677 0.06201,1.48828 H 86.75479 q 0.04134,1.12999 0.709689,1.58475 0.406521,0.28249 0.978407,0.28249 0.606336,0 0.985296,-0.34451 0.206706,-0.18603 0.36518,-0.51676 z m -1.943032,-2.30132 q -0.04823,-0.77859 -0.475423,-1.17822 -0.420301,-0.40652 -1.047308,-0.40652 -0.682129,0 -1.061089,0.42719 -0.37207,0.42719 -0.468532,1.15755 z m 7.138234,-1.192 q -1.185112,0 -1.591633,0.7717 -0.227376,0.43408 -0.227376,1.33669 v 3.58979 h -1.977483 v -7.5103 h 1.87413 v 1.30913 q 0.454752,-0.75103 0.792372,-1.02664 0.551214,-0.46164 1.433158,-0.46164 0.05512,0 0.08957,0.007 0.04134,0 0.172254,0.007 v 2.01194 q -0.186035,-0.0207 -0.330729,-0.0276 -0.144694,-0.007 -0.234266,-0.007 z m 4.768012,3.72759 1.55029,-5.53971 h 2.08772 l -2.57692,7.38628 q -0.74414,2.13595 -1.17823,2.64583 -0.43408,0.51676 -1.736323,0.51676 -0.261827,0 -0.420302,-0.007 -0.158474,0 -0.475423,-0.0207 v -1.57096 l 0.248047,0.0138 q 0.289388,0.0138 0.551215,-0.0207 0.261826,-0.0345 0.440976,-0.15848 0.17225,-0.11713 0.31694,-0.4892 0.15159,-0.37207 0.12403,-0.45475 l -2.756077,-7.84103 h 2.184187 z"
         id="path94" />
      <path
         style="font-weight:bold;font-family:Helvetica;-inkscape-font-specification:'Helvetica Bold';fill:none;stroke:#000000"
         d="m 32.129399,235.21095 q -0.351399,-0.4203 -1.005967,-0.4203 -0.895724,0 -1.219563,0.66835 -0.186035,0.38585 -0.220486,1.22645 h -1.908581 q 0.04823,-1.27468 0.461642,-2.06016 0.785481,-1.49517 2.790526,-1.49517 1.584742,0 2.521807,0.88194 0.937066,0.87505 0.937066,2.32199 0,1.10932 -0.661458,1.9706 -0.434082,0.57188 -1.426269,1.27468 l -0.785481,0.55811 q -0.73725,0.52365 -1.012857,0.75792 -0.268717,0.23426 -0.454752,0.54432 h 4.361487 v 1.72944 h -6.841954 q 0.02756,-1.07487 0.461642,-1.96371 0.420302,-0.99907 1.984374,-2.11528 1.357366,-0.97152 1.756997,-1.39182 0.613227,-0.65457 0.613227,-1.43316 0,-0.6339 -0.3514,-1.0542 z m 7.847922,0 q -0.3514,-0.4203 -1.005968,-0.4203 -0.895724,0 -1.219562,0.66835 -0.186035,0.38585 -0.220486,1.22645 h -1.908582 q 0.04823,-1.27468 0.461643,-2.06016 0.785481,-1.49517 2.790525,-1.49517 1.584743,0 2.521808,0.88194 0.937065,0.87505 0.937065,2.32199 0,1.10932 -0.661458,1.9706 -0.434081,0.57188 -1.426268,1.27468 l -0.785481,0.55811 q -0.73725,0.52365 -1.012858,0.75792 -0.268717,0.23426 -0.454752,0.54432 h 4.361488 v 1.72944 H 35.51248 q 0.02756,-1.07487 0.461643,-1.96371 0.420301,-0.99907 1.984373,-2.11528 1.357367,-0.97152 1.756998,-1.39182 0.613226,-0.65457 0.613226,-1.43316 0,-0.6339 -0.351399,-1.0542 z m 2.170408,7.95817 3.934296,-10.46619 h 1.632974 l -3.948076,10.46619 z m 8.578281,0.24804 q -1.908582,0 -2.680283,-1.33669 -0.76481,-1.3367 -0.76481,-3.81027 0,-2.47358 0.76481,-3.81717 0.771701,-1.34358 2.680283,-1.34358 1.908581,0 2.680282,1.34358 0.76481,1.34359 0.76481,3.81717 0,2.47357 -0.7717,3.81027 -0.764811,1.33669 -2.673392,1.33669 z m 1.150661,-2.51491 q 0.268717,-0.90951 0.268717,-2.63205 0,-1.80523 -0.275608,-2.6734 -0.268717,-0.86816 -1.14377,-0.86816 -0.875054,0 -1.157552,0.86816 -0.282497,0.86817 -0.282497,2.6734 0,1.72254 0.282497,2.63894 0.282498,0.9095 1.157552,0.9095 0.875053,0 1.150661,-0.91639 z m 10.190584,-1.41938 v 1.53651 h -1.12999 v 2.14974 h -1.922362 v -2.14974 h -3.954967 v -1.71566 l 3.672469,-6.06336 h 2.20486 v 6.24251 z m -5.55349,0 h 2.501138 v -4.31326 z"
         id="path95" />
      <path
         style="font-weight:bold;font-family:Helvetica;-inkscape-font-specification:'Helvetica Bold';fill:none;stroke:#000000"
         d="m 34.306698,254.50137 v -6.24251 h 2.156628 v 6.24251 q 0,1.61919 -0.502984,2.52181 -0.937065,1.65364 -3.576006,1.65364 -2.638941,0 -3.582896,-1.65364 -0.502984,-0.90262 -0.502984,-2.52181 v -6.24251 h 2.156628 v 6.24251 q 0,1.04731 0.248047,1.52962 0.38585,0.85438 1.681205,0.85438 1.288465,0 1.674315,-0.85438 0.248047,-0.48231 0.248047,-1.52962 z m 7.558533,-2.14285 q -0.999077,0 -1.371147,0.8475 -0.192925,0.44786 -0.192925,1.14377 v 4.06521 h -1.956813 v -7.49653 h 1.894801 v 1.09554 q 0.378961,-0.57877 0.71658,-0.83371 0.606336,-0.45475 1.536511,-0.45475 1.164441,0 1.901691,0.61323 0.74414,0.60633 0.74414,2.01882 v 5.0574 h -2.011934 v -4.5682 q 0,-0.59255 -0.158474,-0.9095 -0.289388,-0.57878 -1.10243,-0.57878 z m 7.103782,-1.45383 V 258.415 H 46.97775 v -7.51031 z m 0,-2.70784 v 1.81212 H 46.97775 v -1.81212 z m 5.436356,4.16167 q -0.999077,0 -1.371147,0.8475 -0.192925,0.44786 -0.192925,1.14377 v 4.06521 h -1.956812 v -7.49653 h 1.894801 v 1.09554 q 0.37896,-0.57877 0.716579,-0.83371 0.606336,-0.45475 1.536511,-0.45475 1.164442,0 1.901692,0.61323 0.74414,0.60633 0.74414,2.01882 v 5.0574 h -2.011935 v -4.5682 q 0,-0.59255 -0.158474,-0.9095 -0.289388,-0.57878 -1.10243,-0.57878 z m 8.523159,4.65777 v 1.46761 l -0.930175,0.0344 q -1.391817,0.0482 -1.901691,-0.48231 -0.330729,-0.33762 -0.330729,-1.04042 v -4.62332 h -1.047308 v -1.3987 h 1.047308 v -2.09462 h 1.943032 v 2.09462 h 1.219563 v 1.3987 h -1.219563 v 3.96875 q 0,0.46164 0.117133,0.57878 0.117134,0.11024 0.71658,0.11024 0.08957,0 0.186035,0 0.103352,-0.007 0.199815,-0.0138 z m 7.689447,-0.80615 q -0.07579,0.66834 -0.695909,1.35736 -0.964626,1.09554 -2.700953,1.09554 -1.433158,0 -2.528698,-0.92328 -1.095539,-0.92329 -1.095539,-3.00412 0,-1.94993 0.985296,-2.99034 0.992187,-1.04042 2.570039,-1.04042 0.937066,0 1.688096,0.3514 0.75103,0.3514 1.240233,1.10932 0.440972,0.66835 0.571886,1.55029 0.07579,0.51676 0.06201,1.48828 h -5.140078 q 0.04134,1.12999 0.709689,1.58474 0.406521,0.2825 0.978406,0.2825 0.606337,0 0.985297,-0.34451 0.206706,-0.18603 0.36518,-0.51676 z m -1.943032,-2.30133 q -0.04823,-0.77859 -0.475423,-1.17822 -0.420302,-0.40652 -1.047309,-0.40652 -0.682128,0 -1.061088,0.42719 -0.37207,0.42719 -0.468533,1.15755 z m 6.897077,-1.55029 q -0.999077,0 -1.371147,0.8475 -0.192925,0.44786 -0.192925,1.14377 v 4.06521 h -1.956813 v -7.49653 h 1.894801 v 1.09554 q 0.378961,-0.57877 0.71658,-0.83371 0.606336,-0.45475 1.536511,-0.45475 1.164441,0 1.901691,0.61323 0.74414,0.60633 0.74414,2.01882 v 5.0574 h -2.011934 v -4.5682 q 0,-0.59255 -0.158474,-0.9095 -0.289388,-0.57878 -1.10243,-0.57878 z m 11.92002,-4.08588 V 258.415 h -1.908581 v -1.04042 q -0.420301,0.66835 -0.957736,0.97151 -0.537434,0.30317 -1.336696,0.30317 -1.316025,0 -2.21864,-1.06109 -0.895724,-1.06798 -0.895724,-2.7354 0,-1.92236 0.881944,-3.02479 0.888834,-1.10243 2.370224,-1.10243 0.682128,0 1.212673,0.30317 0.530544,0.29627 0.861273,0.82682 v -3.5829 z m -5.291662,6.43544 q 0,1.04041 0.413411,1.66053 0.406521,0.62701 1.240233,0.62701 0.833713,0 1.267794,-0.62012 0.434082,-0.62012 0.434082,-1.60541 0,-1.37804 -0.695909,-1.9706 -0.427191,-0.35829 -0.992186,-0.35829 -0.861273,0 -1.267794,0.65457 -0.399631,0.64768 -0.399631,1.61231 z m 13.504763,1.50206 q -0.07579,0.66834 -0.695909,1.35736 -0.964626,1.09554 -2.700953,1.09554 -1.433158,0 -2.528698,-0.92328 -1.095539,-0.92329 -1.095539,-3.00412 0,-1.94993 0.985296,-2.99034 0.992187,-1.04042 2.570039,-1.04042 0.937066,0 1.688096,0.3514 0.75103,0.3514 1.240233,1.10932 0.440972,0.66835 0.571886,1.55029 0.07579,0.51676 0.06201,1.48828 h -5.140078 q 0.04134,1.12999 0.709689,1.58474 0.406521,0.2825 0.978406,0.2825 0.606337,0 0.985297,-0.34451 0.206705,-0.18603 0.36518,-0.51676 z m -1.943033,-2.30133 q -0.04823,-0.77859 -0.475422,-1.17822 -0.420302,-0.40652 -1.047309,-0.40652 -0.682128,0 -1.061088,0.42719 -0.37207,0.42719 -0.468533,1.15755 z m 10.197472,-5.63617 V 258.415 H 102.051 v -1.04042 q -0.4203,0.66835 -0.95774,0.97151 -0.53743,0.30317 -1.336692,0.30317 -1.316026,0 -2.21864,-1.06109 -0.895724,-1.06798 -0.895724,-2.7354 0,-1.92236 0.881944,-3.02479 0.888834,-1.10243 2.370224,-1.10243 0.682128,0 1.212668,0.30317 0.53055,0.29627 0.86128,0.82682 v -3.5829 z m -5.291661,6.43544 q 0,1.04041 0.413411,1.66053 0.406521,0.62701 1.24023,0.62701 0.83372,0 1.2678,-0.62012 0.43408,-0.62012 0.43408,-1.60541 0,-1.37804 -0.69591,-1.9706 -0.42719,-0.35829 -0.99219,-0.35829 -0.86127,0 -1.267791,0.65457 -0.39963,0.64768 -0.39963,1.61231 z m 11.279231,-2.99034 q 0.77859,-0.99219 2.67339,-0.99219 1.23335,0 2.19108,0.4892 0.95774,0.48921 0.95774,1.84657 v 3.44509 q 0,0.35829 0.0138,0.86817 0.0207,0.38585 0.11713,0.52365 0.0965,0.13781 0.28939,0.22738 v 0.28939 h -2.13596 q -0.0896,-0.22738 -0.12402,-0.4272 -0.0345,-0.19981 -0.0551,-0.45475 -0.40652,0.44097 -0.93707,0.75103 -0.63389,0.36518 -1.43316,0.36518 -1.01974,0 -1.68809,-0.57877 -0.66146,-0.58567 -0.66146,-1.65365 0,-1.38493 1.06798,-2.00504 0.58567,-0.33762 1.72255,-0.48231 l 0.66834,-0.0827 q 0.54433,-0.0689 0.7786,-0.17225 0.4203,-0.17915 0.4203,-0.55811 0,-0.46164 -0.32384,-0.63389 -0.31695,-0.17915 -0.93707,-0.17915 -0.69591,0 -0.98529,0.34451 -0.20671,0.25494 -0.27561,0.68902 h -1.8948 q 0.062,-0.9853 0.55121,-1.61919 z m 1.46072,5.27788 q 0.27561,0.22737 0.67524,0.22737 0.6339,0 1.16444,-0.37207 0.53744,-0.37207 0.55811,-1.35736 v -0.73036 q -0.18604,0.11713 -0.37896,0.19292 -0.18604,0.0689 -0.51677,0.13092 l -0.44097,0.0827 q -0.62012,0.11024 -0.88883,0.26872 -0.45476,0.26871 -0.45476,0.83371 0,0.50298 0.2825,0.72347 z m 12.39545,-5.28477 q 0.9095,0.97151 0.9095,2.85253 0,1.98438 -0.89572,3.02479 -0.88884,1.04042 -2.29443,1.04042 -0.89573,0 -1.48828,-0.44786 -0.32384,-0.24805 -0.6339,-0.72347 v 3.91363 h -1.94303 v -10.4662 h 1.88102 v 1.10932 q 0.31695,-0.4892 0.67524,-0.7717 0.65456,-0.50298 1.55718,-0.50298 1.31602,0 2.23242,0.97152 z m -1.11621,2.94899 q 0,-0.86816 -0.39963,-1.53651 -0.39274,-0.66834 -1.28158,-0.66834 -1.06798,0 -1.46761,1.01285 -0.2067,0.53744 -0.2067,1.36426 0,1.30913 0.69591,1.83968 0.41341,0.31006 0.9784,0.31006 0.81993,0 1.24713,-0.6339 0.43408,-0.6339 0.43408,-1.6881 z m 9.73583,-2.94899 q 0.9095,0.97151 0.9095,2.85253 0,1.98438 -0.89572,3.02479 -0.88883,1.04042 -2.29443,1.04042 -0.89573,0 -1.48828,-0.44786 -0.32384,-0.24805 -0.6339,-0.72347 v 3.91363 h -1.94303 v -10.4662 h 1.88102 v 1.10932 q 0.31695,-0.4892 0.67524,-0.7717 0.65456,-0.50298 1.55718,-0.50298 1.31602,0 2.23242,0.97152 z m -1.11621,2.94899 q 0,-0.86816 -0.39963,-1.53651 -0.39274,-0.66834 -1.28158,-0.66834 -1.06797,0 -1.46761,1.01285 -0.2067,0.53744 -0.2067,1.36426 0,1.30913 0.69591,1.83968 0.41341,0.31006 0.9784,0.31006 0.81994,0 1.24713,-0.6339 0.43408,-0.6339 0.43408,-1.6881 z m 3.48643,-6.40098 h 1.96371 V 258.415 h -1.96371 z m 5.898,2.64583 v 7.51031 h -1.99126 v -7.51031 z m 0,-2.70784 v 1.81212 h -1.99126 v -1.81212 z m 8.39914,5.40191 h -2.01193 q -0.0551,-0.42031 -0.2825,-0.75792 -0.33073,-0.45476 -1.02664,-0.45476 -0.99219,0 -1.35737,0.9853 -0.19292,0.52365 -0.19292,1.39182 0,0.82682 0.19292,1.3298 0.3514,0.93707 1.32292,0.93707 0.68902,0 0.97841,-0.37207 0.28938,-0.37207 0.3514,-0.96463 h 2.00504 q -0.0689,0.89573 -0.64768,1.69499 -0.92328,1.28846 -2.7354,1.28846 -1.81212,0 -2.6665,-1.07487 -0.85439,-1.07486 -0.85439,-2.79052 0,-1.93614 0.94396,-3.01101 0.94395,-1.07487 2.60449,-1.07487 1.41249,0 2.30821,0.6339 0.90262,0.63389 1.06798,2.23931 z m 1.63298,-1.88102 q 0.77859,-0.99219 2.67339,-0.99219 1.23334,0 2.19108,0.4892 0.95773,0.48921 0.95773,1.84657 v 3.44509 q 0,0.35829 0.0138,0.86817 0.0207,0.38585 0.11714,0.52365 0.0965,0.13781 0.28938,0.22738 v 0.28939 h -2.13595 q -0.0896,-0.22738 -0.12403,-0.4272 -0.0345,-0.19981 -0.0551,-0.45475 -0.40652,0.44097 -0.93706,0.75103 -0.6339,0.36518 -1.43316,0.36518 -1.01975,0 -1.6881,-0.57877 -0.66146,-0.58567 -0.66146,-1.65365 0,-1.38493 1.06798,-2.00504 0.58567,-0.33762 1.72255,-0.48231 l 0.66835,-0.0827 q 0.54432,-0.0689 0.77859,-0.17225 0.4203,-0.17915 0.4203,-0.55811 0,-0.46164 -0.32384,-0.63389 -0.31695,-0.17915 -0.93706,-0.17915 -0.69591,0 -0.9853,0.34451 -0.20671,0.25494 -0.27561,0.68902 h -1.8948 q 0.062,-0.9853 0.55122,-1.61919 z m 1.46072,5.27788 q 0.2756,0.22737 0.67523,0.22737 0.6339,0 1.16444,-0.37207 0.53744,-0.37207 0.55811,-1.35736 v -0.73036 q -0.18604,0.11713 -0.37896,0.19292 -0.18604,0.0689 -0.51676,0.13092 l -0.44098,0.0827 q -0.62011,0.11024 -0.88883,0.26872 -0.45475,0.26871 -0.45475,0.83371 0,0.50298 0.2825,0.72347 z m 9.5429,0.0207 v 1.46761 l -0.93018,0.0344 q -1.39182,0.0482 -1.90169,-0.48231 -0.33073,-0.33762 -0.33073,-1.04042 v -4.62332 h -1.04731 v -1.3987 h 1.04731 v -2.09462 h 1.94303 v 2.09462 h 1.21957 v 1.3987 h -1.21957 v 3.96875 q 0,0.46164 0.11714,0.57878 0.11713,0.11024 0.71658,0.11024 0.0896,0 0.18603,0 0.10335,-0.007 0.19982,-0.0138 z m 3.27973,-6.1116 v 7.51031 h -1.99126 v -7.51031 z m 0,-2.70784 v 1.81212 h -1.99126 v -1.81212 z m 8.16487,3.65869 q 0.95085,1.192 0.95085,2.81809 0,1.65364 -0.95085,2.83186 -0.95084,1.17133 -2.88699,1.17133 -1.93614,0 -2.88698,-1.17133 -0.95085,-1.17822 -0.95085,-2.83186 0,-1.62609 0.95085,-2.81809 0.95084,-1.192 2.88698,-1.192 1.93615,0 2.88699,1.192 z m -2.89388,0.46853 q -0.86127,0 -1.3298,0.61323 -0.46164,0.60633 -0.46164,1.73633 0,1.12999 0.46164,1.74321 0.46853,0.61323 1.3298,0.61323 0.86128,0 1.32292,-0.61323 0.46164,-0.61322 0.46164,-1.74321 0,-1.13 -0.46164,-1.73633 -0.46164,-0.61323 -1.32292,-0.61323 z m 8.78498,0.0344 q -0.99908,0 -1.37115,0.8475 -0.19292,0.44786 -0.19292,1.14377 v 4.06521 h -1.95681 v -7.49653 h 1.8948 v 1.09554 q 0.37896,-0.57877 0.71658,-0.83371 0.60633,-0.45475 1.53651,-0.45475 1.16444,0 1.90169,0.61323 0.74414,0.60633 0.74414,2.01882 v 5.0574 h -2.01193 v -4.5682 q 0,-0.59255 -0.15848,-0.9095 -0.28939,-0.57878 -1.10243,-0.57878 z"
         id="path96" />
    </g>
    <g
       inkscape:label="Hershey Text"
       style="fill:none;stroke:#000000;stroke-linecap:round;stroke-linejoin:round;line-height:0"
       id="g46"
       transform="translate(3.0102178,1.160221)">
      <g
         transform="translate(19.7238,29.3923)"
         id="g45"
         style="line-height:1.25">
        <path
           d="m 334,22.1 82,12.5 82,53.6 56,84.8 29,111 v 103 l -16,85 -31,70 -51,66 -69,41 -70,13 -59,-10 -67,-25 -62,-54 -48,-91 -15.5,-72 -3.1,-108 12.6,-82 31,-75 45,-59.9 50,-41 54,-18.9 50,-3.1"
           style="stroke-width:0.2584in"
           transform="scale(0.0105833,-0.0105833)"
           id="path14" />
        <path
           d="M 123,-195 V 482 381 l 53,54 63,34 54,10 h 66 l 51,-29 44,-63 22,-72 V 233 L 466,164 432,91.4 381,44.1 343,25.2 284,22.1 236,31.5 183,59.9 132,94.5"
           style="stroke-width:0.2584in"
           transform="matrix(0.0105833,0,0,-0.0105833,7.16489,0)"
           id="path15" />
        <path
           d="M 88.2,265 H 435 v 56 l -16,73 -47,56 -48,32 -66,3 -66,-19 -57,-47 -22,-47 -24.8,-60 -6.3,-63 15.7,-76 28.4,-69 57,-56.8 53,-25.1 66,-6.3 57,15.7 54,28.4"
           style="stroke-width:0.2584in"
           transform="matrix(0.0105833,0,0,-0.0105833,13.1656,0)"
           id="path16" />
        <path
           d="M 126,15.8 V 482 369 l 44,44 41,37 32,19 47,13 31,3 48,-13 28,-18 22,-32 19,-44 V 15.8"
           style="stroke-width:0.2584in"
           transform="matrix(0.0105833,0,0,-0.0105833,18.4996,0)"
           id="path17" />
        <path
           d="M 123,-195 V 482 381 l 53,54 63,34 54,10 h 66 l 51,-29 44,-63 22,-72 V 233 L 466,164 432,91.4 381,44.1 343,25.2 284,22.1 236,31.5 183,59.9 132,94.5"
           style="stroke-width:0.2584in"
           transform="matrix(0.0105833,0,0,-0.0105833,28.4056,0)"
           id="path18" />
        <path
           d="M 129,715 V 63 l 6,-22.1 10,-12.5 16,-9.5 h 22"
           style="stroke-width:0.2584in"
           transform="matrix(0.0105833,0,0,-0.0105833,34.4063,0)"
           id="path19" />
        <path
           d="m 287,18.9 h 3 l 63,15.7 60,41 37,63.4 16,69 3,66 -9,60 -22,53 -32,41 -44,38 -47,16 -44,3 -51,-9 -47,-29 -41,-47 -22,-44 -18.6,-66 v -51 l 6.2,-59 15.4,-54 38,-50.4 44,-34.7 48,-18.8 44,-3.2"
           style="stroke-width:0.2584in"
           transform="matrix(0.0105833,0,0,-0.0105833,37.2109,0)"
           id="path20" />
        <path
           d="M 299,37.8 265,22.1 h -45 l -40,12.5 -35,41 -6,69.4 V 469 H 47.2 290 139 v 142"
           style="stroke-width:0.2584in"
           transform="matrix(0.0105833,0,0,-0.0105833,43.1481,0)"
           id="path21" />
        <path
           d="M 299,37.8 265,22.1 h -45 l -40,12.5 -35,41 -6,69.4 V 469 H 47.2 290 139 v 142"
           style="stroke-width:0.2584in"
           transform="matrix(0.0105833,0,0,-0.0105833,46.6829,0)"
           id="path22" />
        <path
           d="M 88.2,265 H 435 v 56 l -16,73 -47,56 -48,32 -66,3 -66,-19 -57,-47 -22,-47 -24.8,-60 -6.3,-63 15.7,-76 28.4,-69 57,-56.8 53,-25.1 66,-6.3 57,15.7 54,28.4"
           style="stroke-width:0.2584in"
           transform="matrix(0.0105833,0,0,-0.0105833,50.2178,0)"
           id="path23" />
        <path
           d="M 129,18.9 V 482 340 l 29,57 44,57 47,22 44,6 28,-3"
           style="stroke-width:0.2584in"
           transform="matrix(0.0105833,0,0,-0.0105833,55.5517,0)"
           id="path24" />
        <path
           d="M 44.1,-142 343,709"
           style="stroke-width:0.2584in"
           transform="matrix(0.0105833,0,0,-0.0105833,59.1501,0)"
           id="path25" />
        <path
           d="M 413,72.4 362,34.6 287,18.9 217,28.4 145,75.6 104,142 88.2,220 v 82 l 24.8,76 51,60 60,34 66,10 56,-10 38,-18 16,-19"
           style="stroke-width:0.2584in"
           transform="matrix(0.0105833,0,0,-0.0105833,63.1823,0)"
           id="path26" />
        <path
           d="M 425,476 V 18.9 139 L 391,97.6 350,56.7 293,25.2 239,15.8 183,31.5 145,63 l -22,41 -3,79 v 293"
           style="stroke-width:0.2584in"
           transform="matrix(0.0105833,0,0,-0.0105833,68.1776,0)"
           id="path27" />
        <path
           d="M 299,37.8 265,22.1 h -45 l -40,12.5 -35,41 -6,69.4 V 469 H 47.2 290 139 v 142"
           style="stroke-width:0.2584in"
           transform="matrix(0.0105833,0,0,-0.0105833,74.0408,0)"
           id="path28" />
        <path
           d="M 299,37.8 265,22.1 h -45 l -40,12.5 -35,41 -6,69.4 V 469 H 47.2 290 139 v 142"
           style="stroke-width:0.2584in"
           transform="matrix(0.0105833,0,0,-0.0105833,77.5756,0)"
           id="path29" />
        <path
           d="M 88.2,265 H 435 v 56 l -16,73 -47,56 -48,32 -66,3 -66,-19 -57,-47 -22,-47 -24.8,-60 -6.3,-63 15.7,-76 28.4,-69 57,-56.8 53,-25.1 66,-6.3 57,15.7 54,28.4"
           style="stroke-width:0.2584in"
           transform="matrix(0.0105833,0,0,-0.0105833,81.1104,0)"
           id="path30" />
        <path
           d="M 129,18.9 V 482 340 l 29,57 44,57 47,22 44,6 28,-3"
           style="stroke-width:0.2584in"
           transform="matrix(0.0105833,0,0,-0.0105833,86.4444,0)"
           id="path31" />
        <path
           d="M 44.1,-142 343,709"
           style="stroke-width:0.2584in"
           transform="matrix(0.0105833,0,0,-0.0105833,90.0427,0)"
           id="path32" />
        <path
           d="M 88.2,265 H 435 v 56 l -16,73 -47,56 -48,32 -66,3 -66,-19 -57,-47 -22,-47 -24.8,-60 -6.3,-63 15.7,-76 28.4,-69 57,-56.8 53,-25.1 66,-6.3 57,15.7 54,28.4"
           style="stroke-width:0.2584in"
           transform="matrix(0.0105833,0,0,-0.0105833,94.075,0)"
           id="path33" />
        <path
           d="M 123,15.8 V 479 375 l 44,38 41,34 38,25 47,13 41,-6 28,-13 32,-31 22,-54 6,-66 V 15.8 365 l 13,26 66,59 50,26 41,12 44,-12 29,-16 34,-41 16,-82 V 18.9"
           style="stroke-width:0.2584in"
           transform="matrix(0.0105833,0,0,-0.0105833,99.4089,0)"
           id="path34" />
        <path
           d="M 123,718 V 15.8 101 l 35,-28.6 53,-34.6 57,-15.7 56,-3.2 67,37.8 41,44.3 31,63 13,79 -4,78 -15,73 -47,60 -41,22 -57,12 -60,-12 -60,-32 -63,-50"
           style="stroke-width:0.2584in"
           transform="matrix(0.0105833,0,0,-0.0105833,108.246,0)"
           id="path35" />
        <path
           d="M 129,18.9 V 482 340 l 29,57 44,57 47,22 44,6 28,-3"
           style="stroke-width:0.2584in"
           transform="matrix(0.0105833,0,0,-0.0105833,114.215,0)"
           id="path36" />
        <path
           d="m 287,18.9 h 3 l 63,15.7 60,41 37,63.4 16,69 3,66 -9,60 -22,53 -32,41 -44,38 -47,16 -44,3 -51,-9 -47,-29 -41,-47 -22,-44 -18.6,-66 v -51 l 6.2,-59 15.4,-54 38,-50.4 44,-34.7 48,-18.8 44,-3.2"
           style="stroke-width:0.2584in"
           transform="matrix(0.0105833,0,0,-0.0105833,117.813,0)"
           id="path37" />
        <path
           d="M 126,15.8 V 479 M 97.6,671 V 621 H 148 v 50 H 97.6"
           style="stroke-width:0.2584in"
           transform="matrix(0.0105833,0,0,-0.0105833,123.751,0)"
           id="path38" />
        <path
           d="M 438,715 V 22.1 117 L 394,72.4 334,31.5 274,15.8 l -50,9.4 -51,22 -50,53.8 -31.6,72 -6.4,88 22,104 54,79 75,38 60,6 63,-22 41,-25 41,-38"
           style="stroke-width:0.2584in"
           transform="matrix(0.0105833,0,0,-0.0105833,126.418,0)"
           id="path39" />
        <path
           d="M 88.2,265 H 435 v 56 l -16,73 -47,56 -48,32 -66,3 -66,-19 -57,-47 -22,-47 -24.8,-60 -6.3,-63 15.7,-76 28.4,-69 57,-56.8 53,-25.1 66,-6.3 57,15.7 54,28.4"
           style="stroke-width:0.2584in"
           transform="matrix(0.0105833,0,0,-0.0105833,132.418,0)"
           id="path40" />
        <path
           d="M 129,18.9 V 482 340 l 29,57 44,57 47,22 44,6 28,-3"
           style="stroke-width:0.2584in"
           transform="matrix(0.0105833,0,0,-0.0105833,137.752,0)"
           id="path41" />
        <path
           d="M 53.5,479 243,3.15 M 406,476 211,-78.8 189,-126 158,-161 120,-183 H 53.5"
           style="stroke-width:0.2584in"
           transform="matrix(0.0105833,0,0,-0.0105833,141.351,0)"
           id="path42" />
        <path
           d="M 129,715 V 63 l 6,-22.1 10,-12.5 16,-9.5 h 22"
           style="stroke-width:0.2584in"
           transform="matrix(0.0105833,0,0,-0.0105833,150.219,0)"
           id="path43" />
        <path
           d="m 117,428 66,38 56,16 57,6 44,-16 38,-34 25,-51 3,-69 V 107 22.1 L 403,107 362,78.8 318,47.2 268,25.2 211,15.8 164,31.5 126,56.7 97.6,97.6 V 158 l 22.4,47 50,41 50,19 60,19 57,9 35,3 h 28"
           style="stroke-width:0.2584in"
           transform="matrix(0.0105833,0,0,-0.0105833,153.024,0)"
           id="path44" />
        <path
           d="M 123,718 V 15.8 101 l 35,-28.6 53,-34.6 57,-15.7 56,-3.2 67,37.8 41,44.3 31,63 13,79 -4,78 -15,73 -47,60 -41,22 -57,12 -60,-12 -60,-32 -63,-50"
           style="stroke-width:0.2584in"
           transform="matrix(0.0105833,0,0,-0.0105833,158.527,0)"
           id="path45" />
      </g>
    </g>
    <g
       id="g88"
       style="stroke:#000000">
      <path
         style="font-weight:bold;font-size:27.4126px;line-height:1.35;font-family:Helvetica;-inkscape-font-specification:'Helvetica Bold';stroke-width:0.428322;fill:#ffffff;stroke:#000000"
         d="m 35.49603,50.164444 v 3.4935 H 29.593219 V 69.89402 H 25.443851 V 53.657944 H 19.51427 v -3.4935 z m 12.568571,15.446357 q -0.147236,1.298351 -1.351891,2.636857 -1.873909,2.128224 -5.246943,2.128224 -2.784092,0 -4.912317,-1.793598 -2.128224,-1.793597 -2.128224,-5.835885 0,-3.787972 1.914063,-5.809115 1.927449,-2.021144 4.992627,-2.021144 1.820368,0 3.279339,0.682638 1.458972,0.682638 2.409311,2.154994 0.856644,1.298351 1.11096,3.011638 0.147235,1.00388 0.120465,2.891173 h -9.985253 q 0.08031,2.195149 1.378661,3.078563 0.789718,0.548788 1.900678,0.548788 1.177885,0 1.914063,-0.669253 0.401552,-0.361397 0.709409,-1.00388 z m -3.774587,-4.470609 q -0.09369,-1.512512 -0.923569,-2.288845 -0.816489,-0.789719 -2.034529,-0.789719 -1.325121,0 -2.061299,0.829874 -0.722793,0.829874 -0.910184,2.24869 z m 19.154019,-0.602328 h -3.908437 q -0.107081,-0.816488 -0.548788,-1.472356 -0.642483,-0.883414 -1.994373,-0.883414 -1.927449,0 -2.636857,1.914063 -0.374782,1.017265 -0.374782,2.703782 0,1.606207 0.374782,2.583316 0.682638,1.820368 2.569931,1.820368 1.338506,0 1.900679,-0.722793 0.562172,-0.722793 0.682638,-1.873908 h 3.895052 q -0.133851,1.740058 -1.258196,3.292724 -1.793598,2.503006 -5.313868,2.503006 -3.52027,0 -5.180018,-2.088069 -1.659747,-2.088069 -1.659747,-5.420948 0,-3.761202 1.833753,-5.849271 1.833753,-2.088069 5.059552,-2.088069 2.743937,0 4.483995,1.231425 1.753442,1.231426 2.074684,4.350144 z m 15.807755,0.789719 v 8.566437 h -3.895052 v -8.874294 q 0,-1.177885 -0.401552,-1.900678 -0.522017,-1.017264 -1.980989,-1.017264 -1.512511,0 -2.30223,1.017264 -0.776333,1.003879 -0.776333,2.877788 V 69.89402 H 66.094275 V 50.231369 h 3.801357 v 6.973616 q 0.829874,-1.271581 1.914063,-1.766828 1.097575,-0.508632 2.30223,-0.508632 1.351891,0 2.449466,0.468477 1.11096,0.468477 1.820368,1.432201 0.602328,0.816489 0.736178,1.686517 0.133851,0.856644 0.133851,2.810863 z M 97.455464,50.164444 v 3.4935 h -5.90281 V 69.89402 H 87.403285 V 53.657944 h -5.92958 v -3.4935 z m 5.541416,5.139862 V 69.89402 H 99.128599 V 55.304306 Z m 0,-5.260327 v 3.52027 h -3.868281 v -3.52027 z m 3.77459,0.120465 h 3.81474 V 69.89402 h -3.81474 z m 20.02404,15.446357 q -0.14723,1.298351 -1.35189,2.636857 -1.87391,2.128224 -5.24694,2.128224 -2.7841,0 -4.91232,-1.793598 -2.12822,-1.793597 -2.12822,-5.835885 0,-3.787972 1.91406,-5.809115 1.92745,-2.021144 4.99263,-2.021144 1.82036,0 3.27934,0.682638 1.45897,0.682638 2.40931,2.154994 0.85664,1.298351 1.11096,3.011638 0.14723,1.00388 0.12046,2.891173 h -9.98525 q 0.0803,2.195149 1.37866,3.078563 0.78972,0.548788 1.90068,0.548788 1.17788,0 1.91406,-0.669253 0.40155,-0.361397 0.70941,-1.00388 z m -3.77459,-4.470609 q -0.0937,-1.512512 -0.92356,-2.288845 -0.81649,-0.789719 -2.03453,-0.789719 -1.32512,0 -2.0613,0.829874 -0.7228,0.829874 -0.91019,2.24869 z m 21.17517,-10.975748 v 3.4935 h -5.90281 V 69.89402 h -4.14937 V 53.657944 h -5.92958 v -3.4935 z m 5.54141,5.139862 V 69.89402 h -3.86828 V 55.304306 Z m 0,-5.260327 v 3.52027 h -3.86828 v -3.52027 z m 11.88594,9.275845 q -0.48186,-1.05742 -1.88729,-1.05742 -1.63298,0 -2.19515,1.05742 -0.30786,0.602328 -0.30786,1.793598 v 8.780598 h -3.86828 V 55.331077 h 3.70766 v 2.128224 q 0.70941,-1.13773 1.33851,-1.619592 1.11096,-0.856644 2.87779,-0.856644 1.67313,0 2.70378,0.736178 0.82987,0.682638 1.25819,1.753443 0.74957,-1.284966 1.86053,-1.887293 1.17788,-0.602328 2.62347,-0.602328 0.96372,0 1.90068,0.374782 0.93695,0.374781 1.6999,1.311735 0.61571,0.762949 0.82987,1.873909 0.13385,0.736178 0.13385,2.154994 l -0.0268,9.195535 h -3.90844 v -9.28923 q 0,-0.829874 -0.2677,-1.365276 -0.50863,-1.017265 -1.8739,-1.017265 -1.57944,0 -2.18177,1.311736 -0.30786,0.696023 -0.30786,1.673132 v 8.686903 h -3.84151 v -8.686903 q 0,-1.29835 -0.2677,-1.887293 z m 28.67078,6.290977 q -0.14723,1.298351 -1.35189,2.636857 -1.87391,2.128224 -5.24694,2.128224 -2.78409,0 -4.91232,-1.793598 -2.12822,-1.793597 -2.12822,-5.835885 0,-3.787972 1.91406,-5.809115 1.92745,-2.021144 4.99263,-2.021144 1.82037,0 3.27934,0.682638 1.45897,0.682638 2.40931,2.154994 0.85664,1.298351 1.11096,3.011638 0.14723,1.00388 0.12046,2.891173 h -9.98525 q 0.0803,2.195149 1.37866,3.078563 0.78972,0.548788 1.90068,0.548788 1.17788,0 1.91406,-0.669253 0.40155,-0.361397 0.70941,-1.00388 z m -3.77459,-4.470609 q -0.0937,-1.512512 -0.92356,-2.288845 -0.81649,-0.789719 -2.03453,-0.789719 -1.32512,0 -2.0613,0.829874 -0.7228,0.829874 -0.91019,2.24869 z"
         id="text1"
         aria-label="TechTileTime" />
      <path
         style="stroke:#000000;fill:none;stroke-width:0.428322"
         d="M 20.886903,50.164444 l -1.372633,1.372633 M 19.514723,53.657944 l 3.493500,-3.493500 M 25.129543,50.164444 l -3.493500,3.493500 M 23.757363,53.657944 l 3.493500,-3.493500 M 29.372183,50.164444 l -3.928332,3.928332 M 25.443851,56.214096 l 6.049652,-6.049652 M 33.614823,50.164444 l -3.493500,3.493500 M 25.443851,58.335416 l 4.149368,-4.149368 M 35.496030,50.404557 l -3.253387,3.253387 M 25.443851,60.456736 l 4.149368,-4.149368 M 35.496030,52.525878 l -1.132066,1.132066 M 25.443851,62.578057 l 4.149368,-4.149368 M 29.593219,60.550009 l -4.149368,4.149368 M 25.443851,66.820697 l 4.149368,-4.149368 M 39.182369,55.203499 l -4.317142,4.317142 M 25.443851,68.942017 l 4.149368,-4.149368 M 41.587505,54.919683 l -7.146094,7.146094 M 26.613168,69.894020 l 2.980051,-2.980051 M 43.449941,55.178567 l -2.988773,2.988773 M 34.494840,64.133668 l 4.137892,-4.137892 M 29.593219,69.035289 l -0.858731,0.858731 M 42.479094,58.270734 l 2.488957,-2.488957 M 39.609636,61.140192 l -4.761786,4.761786 M 43.673558,59.197590 l 2.500324,-2.500324 M 41.730956,61.140192 l -2.516391,2.516391 M 35.505920,67.365229 l 2.847780,-2.847780 M 47.105797,57.886672 l -2.855022,2.855022 M 41.335885,63.656583 l 2.516391,-2.516391 M 38.946587,66.045882 l -2.470075,2.470075 M 43.457205,63.656583 l 4.329922,-4.329922 M 40.113885,66.999904 l -2.399456,2.399456 M 51.001678,58.233431 l 2.537925,-2.537925 M 48.169474,61.065635 l -2.590948,2.590948 M 39.191393,70.043716 l 2.783660,-2.783660 M 56.387240,54.969189 l -6.300225,6.300225 M 47.699846,63.656583 l 0.556096,-0.556096 M 45.745628,65.610801 l -4.751820,4.751820 M 50.005091,63.472657 l 8.409499,-8.409499 M 47.866948,65.610801 l -4.589934,4.589934 M 57.395614,58.203455 l 2.700445,-2.700445 M 54.040781,61.558288 l -3.786730,3.786730 M 66.094275,51.626114 l 1.394745,-1.394745 M 61.463945,56.256443 l -2.626273,2.626273 M 50.794344,66.926045 l 3.220188,-3.220188 M 69.610340,50.231369 l -3.516065,3.516065 M 59.503881,60.337828 l 2.972133,-2.972133 M 54.384291,65.457418 l -2.787275,2.787275 M 66.094275,55.868754 l 3.801357,-3.801357 M 63.123282,58.839747 l -1.698117,1.698117 M 52.677563,69.285466 l 2.590029,-2.590029 M 69.895632,54.188717 l -3.801357,3.801357 M 54.088126,69.996223 l 2.792937,-2.792937 M 69.895632,56.310037 l -3.801357,3.801357 M 55.847294,70.358375 l 5.751453,-5.751453 M 73.344185,54.982805 l -7.249910,7.249910 M 57.999481,70.327508 l 5.366592,-5.366592 M 75.401429,55.046880 l -3.114005,3.114005 M 66.094275,64.354034 l 3.988916,-3.988916 M 82.405186,50.164444 l -0.931481,0.931481 M 74.208500,58.361129 l 2.764821,-2.764821 M 69.895632,62.673998 l -3.801357,3.801357 M 81.473705,53.217245 l 3.052801,-3.052801 M 78.150056,56.540894 l -3.005932,3.005932 M 66.094275,68.596675 l 3.801357,-3.801357 M 86.647826,50.164444 l -3.493500,3.493500 M 75.356736,61.455534 l 3.591910,-3.591910 M 69.895632,66.916638 l -2.977382,2.977382 M 85.275646,53.657944 l 3.493500,-3.493500 M 79.221144,59.712446 l -3.864408,3.864408 M 69.039570,69.894020 l 0.856062,-0.856062 M 90.890466,50.164444 l -3.493500,3.493500 M 75.356736,65.698174 l 3.895052,-3.895052 M 93.011786,50.164444 l -5.608501,5.608501 M 75.356736,67.819494 l 3.895052,-3.895052 M 95.133106,50.164444 l -3.493500,3.493500 M 87.403285,57.894265 l 4.149369,-4.149369 M 79.251788,66.045762 l -3.848258,3.848258 M 93.760926,53.657944 l 3.493500,-3.493500 M 91.552654,55.866216 l -4.149369,4.149369 M 77.524850,69.894020 l 1.726938,-1.726938 M 99.496211,50.043979 l -0.367612,0.367612 M 95.882246,53.657944 l 1.573218,-1.573218 M 91.552654,57.987536 l -4.149369,4.149369 M 99.128599,52.532911 l 2.488932,-2.488932 M 91.552654,60.108856 l -4.149369,4.149369 M 100.218582,53.564249 l 2.778298,-2.778298 M 91.552654,62.230177 l -4.149369,4.149369 M 102.339902,53.564249 l 0.656978,-0.656978 M 100.599845,55.304306 l -1.471246,1.471246 M 87.403285,68.500866 l 4.149369,-4.149369 M 107.861027,50.164444 l -1.089557,1.089557 M 99.128599,58.896872 l 3.592566,-3.592566 M 91.552654,66.472817 l -3.421203,3.421203 M 106.771470,53.375321 l 3.210877,-3.210877 M 102.996880,57.149911 l -3.868281,3.868281 M 90.252771,69.894020 l 1.299883,-1.299883 M 110.586210,51.681901 l -3.814740,3.814740 M 99.128599,63.139512 l 3.868281,-3.868281 M 110.586210,53.803221 l -3.814740,3.814740 M 99.128599,65.260832 l 3.868281,-3.868281 M 110.586210,55.924541 l -3.814740,3.814740 M 99.128599,67.382152 l 3.868281,-3.868281 M 110.586210,58.045861 l -3.814740,3.814740 M 99.128599,69.503472 l 3.868281,-3.868281 M 110.586210,60.167181 l -3.814740,3.814740 M 100.859371,69.894020 l 2.137509,-2.137509 M 117.557138,55.317573 l -3.836802,3.836802 M 106.771470,66.103241 l 3.814740,-3.814740 M 102.996880,69.877831 l -0.016189,0.016189 M 113.187359,61.808672 l 6.892432,-6.892432 M 110.586210,64.409821 l -3.814740,3.814740 M 118.821814,58.295537 l 3.165496,-3.165496 M 117.549351,59.568001 l -4.344821,4.344821 M 107.223332,69.894020 l 3.362878,-3.362878 M 129.074228,50.164444 l -0.859898,0.859898 M 121.032225,58.206446 l 2.509375,-2.509375 M 118.098480,61.140192 l -4.575284,4.575284 M 109.344652,69.894020 l 1.241558,-1.241558 M 131.195548,50.164444 l -2.981218,2.981218 M 122.297760,59.062232 l 2.484215,-2.484215 M 120.219800,61.140192 l -2.516391,2.516391 M 114.146076,67.213915 l 2.906055,-2.906055 M 133.316868,50.164444 l -3.493500,3.493500 M 122.948252,60.533060 l 2.793789,-2.793789 M 122.341120,61.140192 l -2.516391,2.516391 M 115.080606,68.400706 l 2.500658,-2.500658 M 135.438188,50.164444 l -3.493500,3.493500 M 121.946049,63.656583 l 4.508545,-4.508545 M 118.681951,66.920681 l -2.388732,2.388732 M 134.066008,53.657944 l 3.493500,-3.493500 M 126.874227,60.849725 l -2.806858,2.806858 M 117.739305,69.984647 l 2.704292,-2.704292 M 139.680828,50.164444 l -5.536918,5.536918 M 126.188689,63.656583 l 0.797328,-0.797328 M 124.234471,65.610801 l -4.735961,4.735961 M 138.308648,53.657944 l 3.493500,-3.493500 M 138.293280,53.673312 l -4.149370,4.149370 M 121.710133,70.256459 l 4.645658,-4.645658 M 143.923468,50.164444 l -3.493500,3.493500 M 134.143910,59.944002 l 4.149370,-4.149370 M 146.165253,50.043979 l -0.296033,0.296033 M 142.551288,53.657944 l 1.644802,-1.644802 M 138.293280,57.915952 l -4.149370,4.149370 M 145.869220,52.461333 l 2.417354,-2.417354 M 138.293280,60.037273 l -4.149370,4.149370 M 146.887624,53.564249 l 2.849876,-2.849876 M 138.293280,62.158593 l -4.149370,4.149370 M 149.008944,53.564249 l 0.728556,-0.728556 M 147.268887,55.304306 l -1.399667,1.399667 M 134.143910,68.429283 l 4.149370,-4.149370 M 149.390207,55.304306 l -3.520987,3.520987 M 134.800493,69.894020 l 3.492787,-3.492787 M 149.737500,57.078333 l -3.868280,3.868280 M 136.921813,69.894020 l 1.371467,-1.371467 M 153.606076,55.331077 l -0.241216,0.241216 M 145.869220,63.067933 l 3.868280,-3.868280 M 155.727396,55.331077 l -2.362536,2.362536 M 145.869220,65.189253 l 3.868280,-3.868280 M 157.072520,56.107273 l -3.707660,3.707660 M 145.869220,67.310573 l 3.868280,-3.868280 M 160.231351,55.069762 l -6.866491,6.866491 M 145.869220,69.431893 l 3.868280,-3.868280 M 162.353946,55.068488 l -3.237645,3.237645 M 153.364860,64.057573 l 3.936785,-3.936785 M 149.737500,67.684933 l -2.209087,2.209087 M 160.977457,58.566296 l 2.915501,-2.915501 M 157.233140,62.310613 l -3.868280,3.868280 M 149.649733,69.894020 l 0.087767,-0.087767 M 164.898906,56.766168 l -3.109633,3.109633 M 153.364860,68.300214 l 3.868280,-3.868280 M 168.724431,55.061962 l -6.833321,6.833321 M 153.892374,69.894020 l 3.340766,-3.340766 M 170.806854,55.100859 l -3.173153,3.173153 M 161.891110,64.016604 l 3.975235,-3.975235 M 157.233140,68.674574 l -1.219446,1.219446 M 169.485776,58.543258 l 2.826330,-2.826330 M 165.732620,62.296414 l -3.841510,3.841510 M 170.297702,59.852652 l 3.101473,-3.101473 M 165.732620,64.417734 l -3.841510,3.841510 M 170.363850,61.907824 l 3.720067,-3.720067 M 165.732620,66.539054 l -3.354966,3.354966 M 170.363850,64.029144 l 3.928464,-3.928464 M 165.732620,68.660374 l -1.233646,1.233646 M 177.143083,59.371231 l 4.124089,-4.124089 M 174.294657,62.219658 l -3.930807,3.930807 M 176.676668,61.958967 l 7.041395,-7.041395 M 174.288456,64.347178 l -3.924606,3.924606 M 182.547297,58.209658 l 3.051966,-3.051966 M 180.927614,59.829341 l -4.212522,4.212522 M 170.862934,69.894020 l 3.419321,-3.419321 M 187.132401,55.745874 l -2.496761,2.496761 M 177.053745,65.824530 l 4.684338,-4.684338 M 174.276055,68.602220 l -1.291800,1.291800 M 185.859608,59.139986 l 2.493005,-2.493005 M 183.859403,61.140192 l -2.516391,2.516391 M 177.697080,67.302515 l 2.871772,-2.871772 M 189.296232,57.824683 l -2.828792,2.828792 M 183.464332,63.656583 l 2.516391,-2.516391 M 181.135081,65.985833 l -2.482527,2.482527 M 185.585652,63.656583 l 4.405108,-4.405108 M 182.274502,66.967733 l -2.394432,2.394432 M 187.706972,63.656583 l 2.681812,-2.681812 M 184.092548,67.271007 l -2.748494,2.748494 M 189.828292,63.656583 l 0.657244,-0.657244 M 187.874074,65.610801 l -4.745901,4.745901 M 185.380234,70.225962 l 4.615161,-4.615161"
         id="path88" />
    </g>
    <g
       inkscape:label="Hershey Text"
       style="fill:none;stroke:#000000;stroke-linecap:round;stroke-linejoin:round"
       id="g106">
      <g
         transform="translate(133.425, 175.967)"
         id="g105">
        <g
           id="g108">
          <g
             id="g107"
             transform="translate(-50.1472,102.87293)">
            <path
               d="M 41,15.8 277,662 416,255 H 132 416 L 501,15.8"
               style="stroke-width:0.2584in"
               transform="scale(0.0105833,-0.0105833)"
               id="path97" />
            <path
               d="M 299,37.8 265,22.1 h -45 l -40,12.5 -35,41 -6,69.4 V 469 H 47.2 290 139 v 142"
               style="stroke-width:0.2584in"
               transform="matrix(0.0105833,0,0,-0.0105833,5.79965,0)"
               id="path98" />
            <path
               d="M 88.2,265 H 435 v 56 l -16,73 -47,56 -48,32 -66,3 -66,-19 -57,-47 -22,-47 -24.8,-60 -6.3,-63 15.7,-76 28.4,-69 57,-56.8 53,-25.1 66,-6.3 57,15.7 54,28.4"
               style="stroke-width:0.2584in"
               transform="matrix(0.0105833,0,0,-0.0105833,9.33447,0)"
               id="path99" />
            <path
               d="M 129,715 V 63 l 6,-22.1 10,-12.5 16,-9.5 h 22"
               style="stroke-width:0.2584in"
               transform="matrix(0.0105833,0,0,-0.0105833,14.6685,0)"
               id="path100" />
            <path
               d="M 126,15.8 V 479 M 97.6,671 V 621 H 148 v 50 H 97.6"
               style="stroke-width:0.2584in"
               transform="matrix(0.0105833,0,0,-0.0105833,17.473,0)"
               id="path101" />
            <path
               d="M 88.2,265 H 435 v 56 l -16,73 -47,56 -48,32 -66,3 -66,-19 -57,-47 -22,-47 -24.8,-60 -6.3,-63 15.7,-76 28.4,-69 57,-56.8 53,-25.1 66,-6.3 57,15.7 54,28.4"
               style="stroke-width:0.2584in"
               transform="matrix(0.0105833,0,0,-0.0105833,20.14,0)"
               id="path102" />
            <path
               d="M 129,18.9 V 482 340 l 29,57 44,57 47,22 44,6 28,-3"
               style="stroke-width:0.2584in"
               transform="matrix(0.0105833,0,0,-0.0105833,25.474,0)"
               id="path103" />
            <path
               d="m 246,18.9 60,12.6 63,63 28,66.5 13,75 6,104 -6,98 -23,94 -31,60 -50,38 -45,16 -37,-3 L 164,608 123,551 94.5,460 85,365 81.9,271 94.5,183 126,94.5 164,53.6 202,22.1 246,18.9"
               style="stroke-width:0.2584in"
               transform="matrix(0.0105833,0,0,-0.0105833,33.0728,0)"
               id="path104" />
            <path
               d="m 75.6,558 41.4,40 50,32 63,16 54,-10 56,-28 35,-47 16,-70 -4,-59 L 356,359 299,277 230,192 167,126 110,63 81.9,31.5 H 438"
               style="stroke-width:0.2584in"
               transform="matrix(0.0105833,0,0,-0.0105833,38.375,0)"
               id="path105" />
          </g>
        </g>
      </g>
    </g>
    <text
       xml:space="preserve"
       transform="scale(0.26458333)"
       id="text106"
       style="font-style:normal;font-weight:normal;font-size:40px;line-height:1.25;font-family:sans-serif;white-space:pre;shape-inside:url(#rect106);display:inline;fill:#000000;fill-opacity:1;stroke:none" />
  </g>
  <plotdata
     application="axidraw"
     model="2"
     plob_version="n/a"
     layer="-2"
     pause_dist="-25400"
     pause_ref="-25400"
     last_x="-2.3299973062052004e-12"
     last_y="-8.772739479301349e-14"
     rand_seed="1"
     row="0" />
</svg>
