<?xml version="1.0" encoding="UTF-8"?>
<svg id="techtiletemple" xmlns="http://www.w3.org/2000/svg" viewBox="0 0 116.39 117.14">
  <defs>
    <style>
      .cls-1 {
        fill: none;
        stroke: #231f20;
        stroke-miterlimit: 10;
        stroke-width: 3px;
      }
    </style>
  </defs>
  <line class="cls-1" x1="19.22" y1="72.53" x2="40.48" y2="72.53"/>
  <line class="cls-1" x1="29.85" y1="72.53" x2="30.08" y2="100.71"/>
  <line class="cls-1" x1="75.91" y1="15.84" x2="97.17" y2="15.84"/>
  <line class="cls-1" x1="86.54" y1="15.84" x2="86.77" y2="44.02"/>
  <path class="cls-1" d="M29.85,47.56c-3.26,0-5.9-2.65-5.9-5.9,0-1.57.62-3.06,1.74-4.17.46-.46.72-1.08.72-1.73s-.26-1.27-.72-1.73c-1.12-1.12-1.74-2.6-1.74-4.17s.62-3.06,1.74-4.17c.95-.95.95-2.49,0-3.45-.46-.46-1.09-.73-1.74-.73h0c-.65,0-1.27.25-1.73.71-1.11,1.12-2.6,1.73-4.17,1.73-3.25,0-5.9-2.65-5.9-5.9s2.65-5.9,5.9-5.9c1.58,0,3.06.62,4.17,1.73.46.46,1.08.72,1.73.72s1.27-.26,1.73-.72c1.11-1.12,2.6-1.73,4.17-1.73s3.06.62,4.17,1.73c.46.46,1.08.72,1.73.72s1.27-.26,1.73-.72c1.11-1.12,2.6-1.73,4.17-1.73,3.26,0,5.9,2.65,5.9,5.9s-2.65,5.9-5.9,5.9c-1.58,0-3.06-.62-4.17-1.73-.46-.46-1.08-.72-1.73-.72h0c-.65,0-1.27.26-1.73.72-.95.96-.95,2.51,0,3.46,1.12,1.12,1.74,2.6,1.74,4.17s-.62,3.06-1.74,4.17c-.46.46-.72,1.08-.72,1.73s.26,1.27.72,1.73c1.12,1.12,1.74,2.6,1.74,4.17,0,3.26-2.65,5.9-5.9,5.9Z"/>
  <path class="cls-1" d="M1.5,58.19h44.69c6.62,0,12,5.38,12,12v44.69H13.5c-6.62,0-12-5.38-12-12v-44.69h0Z"/>
  <circle class="cls-1" cx="86.54" cy="29.85" r="28.35"/>
  <polyline class="cls-1" points="114.89 29.85 114.89 83 86.54 114.89 58.19 83 58.19 29.85"/>
  <line class="cls-1" x1="58.19" y1="83" x2="114.89" y2="83"/>
  <line class="cls-1" x1="80.24" y1="107.8" x2="92.84" y2="107.8"/>
  <line class="cls-1" x1="86.54" y1="83" x2="86.54" y2="58.19"/>
  <line class="cls-1" x1="68.82" y1="83" x2="68.82" y2="51.98"/>
  <line class="cls-1" x1="104.26" y1="83" x2="104.26" y2="51.98"/>
</svg>