<?xml version="1.0" encoding="UTF-8"?>
<svg id="techtiletemple" xmlns="http://www.w3.org/2000/svg" viewBox="0 0 116.39 117.14">
  <defs>
    <style>
      .cls-1 {
        fill: #231f20;
      }
    </style>
  </defs>
  <polygon class="cls-1" points="19.22 74.03 28.36 74.03 28.58 100.73 31.58 100.7 31.36 74.03 40.48 74.03 40.48 71.03 19.22 71.03 19.22 74.03"/>
  <polygon class="cls-1" points="85.27 44.03 88.27 44.01 88.05 17.34 97.17 17.34 97.17 14.34 75.91 14.34 75.91 17.34 85.05 17.34 85.27 44.03"/>
  <path class="cls-1" d="M18.04,25.44c1.98,0,3.84-.77,5.24-2.18.34-.34.99-.35,1.35,0,.36.37.36.97,0,1.33-1.4,1.4-2.18,3.26-2.18,5.23s.77,3.84,2.18,5.23c.18.18.28.42.28.67s-.1.49-.28.67c-1.4,1.4-2.18,3.26-2.18,5.24,0,4.08,3.32,7.4,7.4,7.4s7.4-3.32,7.4-7.4c0-1.98-.77-3.84-2.18-5.24-.18-.18-.28-.42-.28-.67s.1-.49.28-.67c1.4-1.4,2.18-3.26,2.18-5.24s-.77-3.83-2.18-5.23c-.37-.37-.36-.97,0-1.34.35-.36.99-.36,1.34,0,1.4,1.4,3.26,2.18,5.24,2.18,4.08,0,7.4-3.32,7.4-7.4s-3.32-7.4-7.4-7.4c-1.98,0-3.84.77-5.23,2.17-.35.35-.99.35-1.34,0-1.4-1.4-3.26-2.18-5.24-2.18s-3.84.77-5.24,2.17c-.35.35-.99.35-1.34,0-1.4-1.4-3.26-2.18-5.24-2.18-4.08,0-7.4,3.32-7.4,7.4s3.32,7.4,7.4,7.4ZM18.04,13.63c1.17,0,2.28.46,3.11,1.29.73.74,1.75,1.16,2.79,1.16s2.06-.42,2.79-1.16c.83-.83,1.94-1.29,3.11-1.29s2.28.46,3.11,1.29c.73.74,1.75,1.16,2.79,1.16s2.06-.42,2.79-1.16c.83-.83,1.94-1.29,3.11-1.29,2.43,0,4.4,1.98,4.4,4.4s-1.98,4.4-4.4,4.4c-1.17,0-2.28-.46-3.11-1.29-.73-.74-1.75-1.16-2.8-1.16-1.06,0-2.05.42-2.8,1.17-1.52,1.54-1.52,4.04.01,5.57.84.83,1.3,1.94,1.3,3.11s-.46,2.28-1.3,3.11c-.73.73-1.16,1.75-1.16,2.79s.42,2.06,1.16,2.79c.84.83,1.3,1.94,1.3,3.11,0,2.43-1.98,4.4-4.4,4.4s-4.4-1.98-4.4-4.4c0-1.17.46-2.28,1.3-3.11.73-.73,1.16-1.75,1.16-2.79s-.42-2.06-1.16-2.79c-.84-.83-1.3-1.94-1.3-3.11s.46-2.28,1.3-3.11c1.53-1.53,1.54-4.02.01-5.57-.74-.74-1.76-1.17-2.81-1.17-1.04,0-2.06.42-2.8,1.15-.83.83-1.94,1.29-3.11,1.29-2.43,0-4.4-1.98-4.4-4.4s1.97-4.4,4.4-4.4Z"/>
  <path class="cls-1" d="M86.54,0c-16.46,0-29.85,13.39-29.85,29.85v31.88c-2.48-3.07-6.26-5.03-10.5-5.03H0v46.19c0,7.44,6.06,13.5,13.5,13.5h46.19v-29.45l26.85,30.2,29.85-33.58V29.85c0-16.46-13.39-29.85-29.85-29.85ZM86.54,3c14.8,0,26.85,12.04,26.85,26.85s-12.04,26.85-26.85,26.85-26.85-12.04-26.85-26.85S71.74,3,86.54,3ZM61.53,84.5h50.01l-19.38,21.8h-11.25l-19.38-21.8ZM85.04,59.65v21.84h-14.72v-26.61c4.28,2.78,9.31,4.5,14.72,4.77ZM88.04,81.5v-21.84c5.41-.27,10.44-1.99,14.72-4.77v26.61h-14.72ZM59.69,42.88c1.84,3.77,4.45,7.1,7.63,9.78v28.84h-7.63v-38.62ZM56.69,113.39H13.5c-5.79,0-10.5-4.71-10.5-10.5v-43.19h43.19c5.79,0,10.5,4.71,10.5,10.5v43.19ZM83.58,109.3h5.92l-2.96,3.33-2.96-3.33ZM113.39,81.5h-7.63v-28.84c3.18-2.68,5.79-6.01,7.63-9.78v38.62Z"/>
</svg>