<svg xmlns="http://www.w3.org/2000/svg" id="techtiletemple" viewBox="0 0 116.39 117.14"><defs><style>.cls-1{fill:none;stroke:#231f20;stroke-miterlimit:10;stroke-width:3px}</style></defs><path d="M19.22 72.53h21.26M29.85 72.53l.23 28.18M75.91 15.84h21.26M86.54 15.84l.23 28.18M29.85 47.56c-3.26 0-5.9-2.65-5.9-5.9 0-1.57.62-3.06 1.74-4.17.46-.46.72-1.08.72-1.73s-.26-1.27-.72-1.73a5.865 5.865 0 0 1 0-8.34c.95-.95.95-2.49 0-3.45-.46-.46-1.09-.73-1.74-.73s-1.27.25-1.73.71a5.84 5.84 0 0 1-4.17 1.73c-3.25 0-5.9-2.65-5.9-5.9s2.65-5.9 5.9-5.9c1.58 0 3.06.62 4.17 1.73.46.46 1.08.72 1.73.72s1.27-.26 1.73-.72c1.11-1.12 2.6-1.73 4.17-1.73s3.06.62 4.17 1.73c.46.46 1.08.72 1.73.72s1.27-.26 1.73-.72a5.84 5.84 0 0 1 4.17-1.73c3.26 0 5.9 2.65 5.9 5.9s-2.65 5.9-5.9 5.9c-1.58 0-3.06-.62-4.17-1.73-.46-.46-1.08-.72-1.73-.72s-1.27.26-1.73.72c-.95.96-.95 2.51 0 3.46a5.865 5.865 0 0 1 0 8.34c-.46.46-.72 1.08-.72 1.73s.26 1.27.72 1.73a5.87 5.87 0 0 1 1.74 4.17c0 3.26-2.65 5.9-5.9 5.9ZM1.5 58.19h44.69c6.62 0 12 5.38 12 12v44.69H13.5c-6.62 0-12-5.38-12-12V58.19Z" class="cls-1"/><circle cx="86.54" cy="29.85" r="28.35" class="cls-1"/><path d="M114.89 29.85V83l-28.35 31.89L58.19 83V29.85M58.19 83h56.7M80.24 107.8h12.6M86.54 83V58.19M68.82 83V51.98M104.26 83V51.98" class="cls-1"/></svg>